<svg xmlns="http://www.w3.org/2000/svg" xmlns:xlink="http://www.w3.org/1999/xlink" width="120" zoomAndPan="magnify" viewBox="0 0 90 37.5" height="50" preserveAspectRatio="xMidYMid meet" version="1.0"><defs><g/></defs><g fill="#ff3131" fill-opacity="1"><g transform="translate(5.575127, 24.424342)"><g><path d="M 6.03125 -16.515625 L 12.71875 -5.265625 L 12.75 -5.265625 L 14.453125 -16.078125 L 17.59375 -16.078125 L 15.015625 0.3125 L 12.75 0.3125 L 6.0625 -10.921875 L 6.015625 -10.921875 L 4.28125 0 L 1.15625 0 L 3.78125 -16.515625 Z M 6.03125 -16.515625 "/></g></g></g><g fill="#ff3131" fill-opacity="1"><g transform="translate(21.752077, 24.424342)"><g><path d="M 12 -16.078125 L 11.578125 -13.34375 L 6.40625 -13.34375 L 5.84375 -9.8125 L 10.828125 -9.8125 L 10.40625 -7.078125 L 5.421875 -7.078125 L 4.71875 -2.734375 L 9.890625 -2.734375 L 9.46875 0 L 1.15625 0 L 3.6875 -16.078125 Z M 12 -16.078125 "/></g></g></g><g fill="#ff3131" fill-opacity="1"><g transform="translate(32.153062, 24.424342)"><g><path d="M 13.90625 -16.296875 L 15.46875 -5.125 L 15.5 -5.125 L 20.390625 -16.078125 L 23.671875 -16.078125 L 15.65625 0.3125 L 13.34375 0.3125 L 11.8125 -10.1875 L 11.765625 -10.1875 L 7.078125 0.3125 L 4.78125 0.3125 L 2.234375 -16.078125 L 5.53125 -16.078125 L 7.03125 -5.125 L 7.078125 -5.125 L 12.046875 -16.296875 Z M 13.90625 -16.296875 "/></g></g></g><g fill="#ff3131" fill-opacity="1"><g transform="translate(52.976354, 24.424342)"><g><path d="M 10.703125 -12.546875 C 10.453125 -12.972656 10.144531 -13.296875 9.78125 -13.515625 C 9.425781 -13.742188 9.003906 -13.859375 8.515625 -13.859375 C 7.941406 -13.859375 7.414062 -13.648438 6.9375 -13.234375 C 6.46875 -12.816406 6.234375 -12.328125 6.234375 -11.765625 C 6.234375 -11.410156 6.378906 -11.101562 6.671875 -10.84375 C 6.960938 -10.582031 7.4375 -10.304688 8.09375 -10.015625 C 8.75 -9.722656 9.191406 -9.503906 9.421875 -9.359375 C 9.847656 -9.160156 10.234375 -8.890625 10.578125 -8.546875 C 10.929688 -8.210938 11.191406 -7.828125 11.359375 -7.390625 C 11.535156 -6.953125 11.625 -6.5 11.625 -6.03125 C 11.625 -5.164062 11.453125 -4.3125 11.109375 -3.46875 C 10.765625 -2.632812 10.296875 -1.921875 9.703125 -1.328125 C 9.117188 -0.742188 8.46875 -0.304688 7.75 -0.015625 C 7.03125 0.273438 6.238281 0.421875 5.375 0.421875 C 4.269531 0.421875 3.351562 0.132812 2.625 -0.4375 C 1.894531 -1.007812 1.328125 -1.765625 0.921875 -2.703125 L 3.265625 -4.6875 C 3.421875 -3.96875 3.726562 -3.394531 4.1875 -2.96875 C 4.65625 -2.550781 5.1875 -2.34375 5.78125 -2.34375 C 6.445312 -2.34375 7.023438 -2.613281 7.515625 -3.15625 C 8.003906 -3.707031 8.25 -4.332031 8.25 -5.03125 C 8.25 -5.5 8.101562 -5.890625 7.8125 -6.203125 C 7.519531 -6.515625 7.050781 -6.800781 6.40625 -7.0625 C 5.175781 -7.539062 4.285156 -8.066406 3.734375 -8.640625 C 3.179688 -9.222656 2.90625 -9.953125 2.90625 -10.828125 C 2.90625 -11.796875 3.144531 -12.710938 3.625 -13.578125 C 4.101562 -14.453125 4.773438 -15.160156 5.640625 -15.703125 C 6.503906 -16.242188 7.429688 -16.515625 8.421875 -16.515625 C 9.179688 -16.515625 9.953125 -16.34375 10.734375 -16 C 11.515625 -15.664062 12.109375 -15.238281 12.515625 -14.71875 Z M 10.703125 -12.546875 "/></g></g></g><g fill="#ff3131" fill-opacity="1"><g transform="translate(64.187253, 24.424342)"><g><path d="M 6.828125 -16.078125 L 4.71875 -2.734375 L 9.15625 -2.734375 L 8.71875 0 L 1.15625 0 L 3.6875 -16.078125 Z M 6.828125 -16.078125 "/></g></g></g><g fill="#ff3131" fill-opacity="1"><g transform="translate(71.902348, 24.424342)"><g><path d="M 5.84375 -16.078125 L 7.78125 -10.5 L 11.734375 -16.078125 L 15.40625 -16.078125 L 8.953125 -7.375 L 7.78125 0 L 4.65625 0 L 5.828125 -7.375 L 2.203125 -16.078125 Z M 5.84375 -16.078125 "/></g></g></g></svg>